# Blender 5.1.2
# www.blender.org
mtllib augmag8.mtl
o augmagazine
v 1.113358 -0.710796 0.123819
v 1.086512 -0.776120 -0.115855
v 1.111685 -0.710796 -0.116030
v 1.088185 -0.776120 0.123995
v 1.102767 -0.652664 -0.096566
v 1.104170 -0.652664 0.104511
v 1.198266 -0.358362 -0.097232
v 1.199669 -0.358362 0.103845
v 1.229857 -0.076362 -0.097453
v 1.231260 -0.076362 0.103625
v 1.229857 -0.076362 -0.097453
v 0.939884 0.017695 -0.095430
v 0.941287 0.017695 0.105647
v 1.231260 -0.076362 0.103625
v 0.787944 -0.528037 -0.113772
v 0.789617 -0.528037 0.126077
v 0.830709 -0.499077 -0.094669
v 0.832112 -0.499077 0.106409
v 0.764481 -0.593361 0.126253
v 1.113358 -0.710796 0.123819
v 0.789617 -0.528037 0.126077
v 1.088185 -0.776120 0.123995
v 0.832112 -0.499077 0.106409
v 1.104170 -0.652664 0.104511
v 0.909695 -0.264300 0.105868
v 1.199669 -0.358362 0.103845
v 1.231260 -0.076362 0.103625
v 0.941287 0.017695 0.105647
v 0.762808 -0.593361 -0.113597
v 0.764481 -0.593361 0.126253
v 0.787944 -0.528037 -0.113772
v 0.789617 -0.528037 0.126077
v 0.830709 -0.499077 -0.094669
v 0.832112 -0.499077 0.106409
v 0.909695 -0.264300 0.105868
v 0.908293 -0.264300 -0.095210
v 0.941287 0.017695 0.105647
v 0.939884 0.017695 -0.095430
v 0.762808 -0.593361 -0.113597
v 1.086512 -0.776120 -0.115855
v 1.088185 -0.776120 0.123995
v 0.764481 -0.593361 0.126253
v 1.086512 -0.776120 -0.115855
v 0.762808 -0.593361 -0.113597
v 1.111685 -0.710796 -0.116030
v 0.787944 -0.528037 -0.113772
v 0.830709 -0.499077 -0.094669
v 1.102767 -0.652664 -0.096566
v 0.908293 -0.264300 -0.095210
v 1.198266 -0.358362 -0.097232
v 1.229857 -0.076362 -0.097453
v 0.939884 0.017695 -0.095430
v 1.167659 -0.087281 -0.103821
v 1.169156 -0.087281 0.110831
v 1.141187 -0.346074 -0.103637
v 1.142684 -0.346074 0.111015
v 1.056728 -0.606800 -0.103048
v 1.058225 -0.606800 0.111604
v 1.090993 -0.062409 -0.103287
v 1.066018 -0.321202 0.111550
v 1.064521 -0.321202 -0.103102
v 1.092490 -0.062409 0.111365
v 0.986295 -0.566186 0.112106
v 0.984798 -0.566186 -0.102546
v 1.015823 -0.037537 0.111900
v 0.987854 -0.296331 -0.102567
v 1.014326 -0.037537 -0.102752
v 0.989351 -0.296331 0.112085
v 0.912830 -0.525572 -0.102044
v 0.914327 -0.525572 0.112608
v 1.064673 -0.053876 -0.103103
v 1.066170 -0.053876 0.111549
v 1.090993 -0.062409 -0.103287
v 1.092490 -0.062409 0.111365
v 0.988007 -0.029005 -0.102568
v 0.989504 -0.029005 0.112084
v 1.014326 -0.037537 -0.102752
v 1.015823 -0.037537 0.111900
v 1.141340 -0.078748 -0.103638
v 1.142837 -0.078748 0.111014
v 1.167659 -0.087281 -0.103821
v 1.169156 -0.087281 0.110831
v 1.058225 -0.606800 0.111604
v 1.116403 -0.337541 0.111199
v 1.033548 -0.592866 0.111777
v 1.142684 -0.346074 0.111015
v 1.169156 -0.087281 0.110831
v 1.142837 -0.078748 0.111014
v 0.986295 -0.566186 0.112106
v 1.039736 -0.312670 0.111733
v 0.961580 -0.552252 0.112279
v 1.066018 -0.321202 0.111550
v 1.092490 -0.062409 0.111365
v 1.066170 -0.053876 0.111549
v 0.914327 -0.525572 0.112608
v 0.963032 -0.287798 0.112268
v 0.889650 -0.511638 0.112780
v 0.989351 -0.296331 0.112085
v 1.015823 -0.037537 0.111900
v 0.989504 -0.029005 0.112084
v 0.988007 -0.029005 -0.102568
v 0.961534 -0.287798 -0.102384
v 0.963032 -0.287798 0.112268
v 0.989504 -0.029005 0.112084
v 0.889650 -0.511638 0.112780
v 0.888153 -0.511638 -0.101872
v 1.064673 -0.053876 -0.103103
v 1.038239 -0.312670 -0.102919
v 1.039736 -0.312670 0.111733
v 1.066170 -0.053876 0.111549
v 0.961580 -0.552252 0.112279
v 0.960082 -0.552252 -0.102373
v 1.141340 -0.078748 -0.103638
v 1.114906 -0.337541 -0.103453
v 1.116403 -0.337541 0.111199
v 1.142837 -0.078748 0.111014
v 1.033548 -0.592866 0.111777
v 1.032051 -0.592866 -0.102875
v 0.984798 -0.566186 -0.102546
v 0.986295 -0.566186 0.112106
v 0.960082 -0.552252 -0.102373
v 0.961580 -0.552252 0.112279
v 0.912830 -0.525572 -0.102044
v 0.914327 -0.525572 0.112608
v 0.888153 -0.511638 -0.101872
v 0.889650 -0.511638 0.112780
v 1.056728 -0.606800 -0.103048
v 1.058225 -0.606800 0.111604
v 1.032051 -0.592866 -0.102875
v 1.033548 -0.592866 0.111777
v 0.960082 -0.552252 -0.102373
v 1.038239 -0.312670 -0.102919
v 0.984798 -0.566186 -0.102546
v 1.064521 -0.321202 -0.103102
v 1.090993 -0.062409 -0.103287
v 1.064673 -0.053876 -0.103103
v 1.032051 -0.592866 -0.102875
v 1.114906 -0.337541 -0.103453
v 1.056728 -0.606800 -0.103048
v 1.141187 -0.346074 -0.103637
v 1.167659 -0.087281 -0.103821
v 1.141340 -0.078748 -0.103638
v 0.888153 -0.511638 -0.101872
v 0.961534 -0.287798 -0.102384
v 0.912830 -0.525572 -0.102044
v 0.987854 -0.296331 -0.102567
v 1.014326 -0.037537 -0.102752
v 0.988007 -0.029005 -0.102568
vn 0.9945 -0.1043 -0.0069
vn 0.9323 -0.3616 -0.0065
vn 0.9989 -0.0455 -0.0070
vn 0.9790 -0.2038 -0.0068
vn 0.9938 -0.1109 -0.0069
vn 0.3090 0.9511 -0.0022
vn 0.3088 0.9511 -0.0022
vn 0.3085 0.9512 -0.0022
vn -0.8350 0.5503 0.0058
vn -0.8374 0.5465 0.0058
vn -0.8349 0.5504 0.0058
vn -0.8375 0.5464 0.0058
vn 0.0070 -0.0000 1.0000
vn 0.0966 0.1646 0.9816
vn 0.0468 0.0742 0.9961
vn 0.1358 0.2381 0.9617
vn 0.1061 0.1803 0.9779
vn 0.0070 -0.0003 1.0000
vn -0.9323 0.3616 0.0065
vn -0.9323 0.3615 0.0065
vn -0.8349 0.5503 0.0058
vn -0.9790 0.2038 0.0068
vn -0.9938 0.1109 0.0069
vn -0.9938 0.1110 0.0069
vn -0.4942 -0.8694 0.0034
vn -0.4942 -0.8693 0.0034
vn -0.0070 -0.0000 -1.0000
vn 0.0829 0.1648 -0.9828
vn 0.0329 0.0739 -0.9967
vn 0.1223 0.2378 -0.9636
vn 0.0925 0.1806 -0.9792
vn 0.9876 -0.1566 -0.0069
vn 0.9876 -0.1567 -0.0069
vn 0.9518 -0.3065 -0.0066
vn 0.9518 -0.3067 -0.0066
vn 0.9866 -0.1630 -0.0069
vn 0.9499 -0.3125 -0.0066
vn 0.3089 0.9511 -0.0022
vn 0.3087 0.9512 -0.0022
vn -0.9945 0.1043 0.0069
vn -0.9866 0.1630 0.0069
vn -0.9499 0.3125 0.0066
vn -0.9499 0.3124 0.0066
vn -0.9876 0.1567 0.0069
vn -0.9876 0.1566 0.0069
vn -0.9518 0.3066 0.0066
vn -0.4943 -0.8693 0.0034
vn -0.4941 -0.8694 0.0034
vn -0.0070 -0.0003 -1.0000
vn -0.0070 0.0003 -1.0000
vt 1.969080 -41.089600
vt 2.030920 -41.107300
vt 2.030920 -41.089600
vt 1.969080 -41.107300
vt 2.025990 -41.073898
vt 1.974010 -41.073898
vt 2.025990 -40.994400
vt 1.974010 -40.994400
vt 2.025990 -40.918098
vt 1.974010 -40.918098
vt 1.923610 -41.026001
vt 2.018490 -41.026001
vt 2.018490 -40.973999
vt 1.923610 -40.973999
vt 2.068160 -40.969101
vt 2.054220 -41.026001
vt 2.068160 -41.030899
vt 2.054220 -40.973999
vt 1.923610 -41.057899
vt 2.037770 -41.089600
vt 1.931840 -41.040199
vt 2.029540 -41.107300
vt 1.945780 -41.032398
vt 2.034810 -41.073898
vt 1.971180 -40.968899
vt 2.066050 -40.994400
vt 2.076390 -40.918098
vt 1.981510 -40.892700
vt 1.969080 -41.057899
vt 2.030920 -41.057899
vt 1.969080 -41.040199
vt 2.030920 -41.040199
vt 1.974010 -41.032398
vt 2.025990 -41.032398
vt 2.025990 -40.968899
vt 1.974010 -40.968899
vt 2.025990 -40.892700
vt 1.974010 -40.892700
vt 1.923610 -41.030899
vt 2.029540 -41.030899
vt 2.029540 -40.969101
vt 1.923610 -40.969101
vt 1.970460 -41.107300
vt 2.076390 -41.057899
vt 1.962230 -41.089600
vt 2.068160 -41.040199
vt 2.054220 -41.032398
vt 1.965190 -41.073898
vt 2.028820 -40.968899
vt 1.933950 -40.994400
vt 1.923610 -40.918098
vt 2.018490 -40.892700
vt 62.027699 -36.937698
vt 61.972301 -36.937698
vt 62.027699 -37.007599
vt 61.972301 -37.007599
vt 62.027699 -37.078098
vt 61.972301 -37.078098
vt 62.027699 -36.930901
vt 61.972301 -37.000900
vt 62.027699 -37.000900
vt 61.972301 -36.930901
vt 61.972301 -37.067101
vt 62.027699 -37.067101
vt 61.972301 -36.924198
vt 62.027699 -36.994202
vt 62.027699 -36.924198
vt 61.972301 -36.994202
vt 62.027699 -37.056099
vt 61.972301 -37.056099
vt 61.987999 -37.027699
vt 61.987999 -36.972301
vt 61.979401 -37.027699
vt 61.979401 -36.972301
vt 62.013100 -37.027699
vt 62.013100 -36.972301
vt 62.004398 -37.027699
vt 62.004398 -36.972301
vt 61.962898 -37.027699
vt 61.962898 -36.972301
vt 61.954300 -37.027699
vt 61.954300 -36.972301
vt 62.009399 -37.078098
vt 62.028500 -37.005299
vt 62.001400 -37.074299
vt 62.037102 -37.007599
vt 62.045700 -36.937698
vt 62.037102 -36.935398
vt 61.985901 -37.067101
vt 62.003399 -36.998600
vt 61.977798 -37.063301
vt 62.012001 -37.000900
vt 62.020599 -36.930901
vt 62.012001 -36.928600
vt 61.962299 -37.056099
vt 61.978298 -36.991901
vt 61.954300 -37.052399
vt 61.986900 -36.994202
vt 61.995602 -36.924198
vt 61.986900 -36.921902
vt 61.972301 -36.921902
vt 61.972301 -36.991901
vt 62.027699 -36.991901
vt 62.027699 -36.921902
vt 62.027699 -37.052399
vt 61.972301 -37.052399
vt 61.972301 -36.928600
vt 61.972301 -36.998600
vt 62.027699 -36.998600
vt 62.027699 -36.928600
vt 62.027699 -37.063301
vt 61.972301 -37.063301
vt 61.972301 -36.935398
vt 61.972301 -37.005299
vt 62.027699 -37.005299
vt 62.027699 -36.935398
vt 62.027699 -37.074299
vt 61.972301 -37.074299
vt 61.985901 -37.027699
vt 61.985901 -36.972301
vt 61.977798 -37.027699
vt 61.977798 -36.972301
vt 61.962299 -37.027699
vt 61.962299 -36.972301
vt 62.009399 -37.027699
vt 62.009399 -36.972301
vt 62.001400 -37.027699
vt 62.001400 -36.972301
vt 62.022202 -37.063301
vt 61.996601 -36.998600
vt 62.014099 -37.067101
vt 61.987999 -37.000900
vt 61.979401 -36.930901
vt 61.987999 -36.928600
vt 61.998600 -37.074299
vt 61.971500 -37.005299
vt 61.990601 -37.078098
vt 61.962898 -37.007599
vt 61.954300 -36.937698
vt 61.962898 -36.935398
vt 62.045700 -37.052399
vt 62.021702 -36.991901
vt 62.037701 -37.056099
vt 62.013100 -36.994202
vt 62.004398 -36.924198
vt 62.013100 -36.921902
s 1
usemtl Meshpart1Mtl.005
f 1/1/1 2/2/2 3/3/1
f 2/2/2 1/1/1 4/4/2
f 5/5/3 1/1/1 3/3/1
f 1/1/1 5/5/3 6/6/3
f 7/7/4 6/6/3 5/5/3
f 6/6/3 7/7/4 8/8/4
f 9/9/5 8/8/4 7/7/4
f 8/8/4 9/9/5 10/10/5
f 11/11/6 12/12/7 13/13/8
f 11/11/6 13/13/8 14/14/8
f 16/15/9 17/16/10 15/17/11
f 17/16/10 16/15/9 18/18/12
f 19/19/13 20/20/14 21/21/15
f 20/20/14 19/19/13 22/22/13
f 20/20/14 23/23/16 21/21/15
f 23/23/16 20/20/14 24/24/17
f 24/24/17 25/25/13 23/23/16
f 25/25/13 24/24/17 26/26/13
f 25/25/13 26/26/13 27/27/13
f 25/25/13 27/27/13 28/28/18
f 29/29/19 30/30/20 31/31/21
f 31/31/21 30/30/20 32/32/21
f 33/33/12 34/34/12 35/35/22
f 36/36/22 33/33/12 35/35/22
f 36/36/22 35/35/22 37/37/23
f 38/38/24 36/36/22 37/37/23
f 39/39/25 40/40/26 41/41/25
f 39/39/25 41/41/25 42/42/25
f 43/43/27 44/44/27 45/45/28
f 45/45/28 44/44/27 46/46/29
f 45/45/28 46/46/29 47/47/30
f 47/47/30 48/48/31 45/45/28
f 48/48/31 47/47/30 49/49/27
f 49/49/27 50/50/27 48/48/31
f 49/49/27 51/51/27 50/50/27
f 51/51/27 49/49/27 52/52/27
usemtl Meshpart2Mtl.004
f 53/53/1 54/54/1 55/55/32
f 55/55/32 54/54/1 56/56/33
f 55/55/32 56/56/33 57/57/34
f 57/57/34 56/56/33 58/58/35
f 59/59/1 60/60/36 61/61/36
f 60/60/36 59/59/1 62/62/1
f 63/63/37 61/61/36 60/60/36
f 61/61/36 63/63/37 64/64/37
f 65/65/1 66/66/36 67/67/1
f 66/66/36 65/65/1 68/68/36
f 66/66/36 68/68/36 69/69/37
f 69/69/37 68/68/36 70/70/37
f 71/71/7 72/72/7 73/73/7
f 73/73/7 72/72/7 74/74/7
f 75/75/38 76/76/38 77/77/7
f 77/77/7 76/76/38 78/78/39
f 79/79/38 80/80/7 81/81/38
f 81/81/38 80/80/7 82/82/39
f 83/83/13 84/84/13 85/85/13
f 84/84/13 83/83/13 86/86/13
f 87/87/13 84/84/13 86/86/13
f 84/84/13 87/87/13 88/88/13
f 89/89/13 90/90/13 91/91/13
f 90/90/13 89/89/13 92/92/13
f 93/93/13 90/90/13 92/92/13
f 90/90/13 93/93/13 94/94/13
f 95/95/13 96/96/13 97/97/13
f 96/96/13 95/95/13 98/98/13
f 99/99/13 96/96/13 98/98/13
f 96/96/13 99/99/13 100/100/13
f 101/101/40 102/102/41 103/103/41
f 101/101/40 103/103/41 104/104/40
f 102/102/41 105/105/42 103/103/41
f 102/102/41 106/106/43 105/105/42
f 107/107/40 108/108/44 109/109/44
f 107/107/40 109/109/44 110/110/40
f 108/108/44 111/111/42 109/109/44
f 108/108/44 112/112/42 111/111/42
f 113/113/40 114/114/44 115/115/45
f 113/113/40 115/115/45 116/116/40
f 114/114/44 117/117/46 115/115/45
f 114/114/44 118/118/46 117/117/46
f 119/119/47 120/120/48 121/121/26
f 121/121/26 120/120/48 122/122/48
f 123/123/48 124/124/26 125/81/26
f 125/81/26 124/124/26 126/82/47
f 127/125/48 128/126/26 129/127/26
f 129/127/26 128/126/26 130/128/26
f 131/129/27 132/130/27 133/131/27
f 134/132/27 133/131/27 132/130/27
f 132/130/27 135/133/27 134/132/27
f 135/133/27 132/130/27 136/134/27
f 137/135/49 138/136/27 139/137/49
f 140/138/27 139/137/49 138/136/27
f 138/136/27 141/139/27 140/138/27
f 141/139/27 138/136/27 142/140/27
f 143/141/27 144/142/27 145/143/27
f 146/144/50 145/143/27 144/142/27
f 144/142/27 147/145/27 146/144/50
f 147/145/27 144/142/27 148/146/27
