# Blender 5.1.2
# www.blender.org
mtllib augmag2.mtl
o augmagazine
v 1.145644 -1.029671 0.123819
v 1.118798 -1.094995 -0.115855
v 1.143971 -1.029671 -0.116030
v 1.120471 -1.094995 0.123995
v 1.135053 -0.971539 -0.096566
v 1.136456 -0.971539 0.104511
v 1.230552 -0.677237 -0.097232
v 1.231955 -0.677237 0.103845
v 1.262143 -0.395237 -0.097453
v 1.263546 -0.395237 0.103625
v 1.262143 -0.395237 -0.097453
v 0.972170 -0.301180 -0.095430
v 0.973573 -0.301180 0.105647
v 1.263546 -0.395237 0.103625
v 0.820230 -0.846912 -0.113772
v 0.821903 -0.846912 0.126077
v 0.862995 -0.817952 -0.094669
v 0.864398 -0.817952 0.106409
v 0.796767 -0.912236 0.126253
v 1.145644 -1.029671 0.123819
v 0.821903 -0.846912 0.126077
v 1.120471 -1.094995 0.123995
v 0.864398 -0.817952 0.106409
v 1.136456 -0.971539 0.104511
v 0.941981 -0.583175 0.105868
v 1.231955 -0.677237 0.103845
v 1.263546 -0.395237 0.103625
v 0.973573 -0.301180 0.105647
v 0.795094 -0.912236 -0.113597
v 0.796767 -0.912236 0.126253
v 0.820230 -0.846912 -0.113772
v 0.821903 -0.846912 0.126077
v 0.862995 -0.817952 -0.094669
v 0.864398 -0.817952 0.106409
v 0.941981 -0.583175 0.105868
v 0.940579 -0.583175 -0.095210
v 0.973573 -0.301180 0.105647
v 0.972170 -0.301180 -0.095430
v 0.795094 -0.912236 -0.113597
v 1.118798 -1.094995 -0.115855
v 1.120471 -1.094995 0.123995
v 0.796767 -0.912236 0.126253
v 1.118798 -1.094995 -0.115855
v 0.795094 -0.912236 -0.113597
v 1.143971 -1.029671 -0.116030
v 0.820230 -0.846912 -0.113772
v 0.862995 -0.817952 -0.094669
v 1.135053 -0.971539 -0.096566
v 0.940579 -0.583175 -0.095210
v 1.230552 -0.677237 -0.097232
v 1.262143 -0.395237 -0.097453
v 0.972170 -0.301180 -0.095430
v 1.199945 -0.406156 -0.103821
v 1.201442 -0.406156 0.110831
v 1.173473 -0.664949 -0.103637
v 1.174970 -0.664949 0.111015
v 1.089014 -0.925675 -0.103048
v 1.090511 -0.925675 0.111604
v 1.123279 -0.381284 -0.103287
v 1.098304 -0.640077 0.111550
v 1.096807 -0.640077 -0.103102
v 1.124776 -0.381284 0.111365
v 1.018581 -0.885061 0.112106
v 1.017084 -0.885061 -0.102546
v 1.048109 -0.356412 0.111900
v 1.020140 -0.615206 -0.102567
v 1.046612 -0.356412 -0.102752
v 1.021637 -0.615206 0.112085
v 0.945116 -0.844447 -0.102044
v 0.946613 -0.844447 0.112608
v 1.096959 -0.372751 -0.103103
v 1.098456 -0.372751 0.111549
v 1.123279 -0.381284 -0.103287
v 1.124776 -0.381284 0.111365
v 1.020293 -0.347880 -0.102568
v 1.021790 -0.347880 0.112084
v 1.046612 -0.356412 -0.102752
v 1.048109 -0.356412 0.111900
v 1.173626 -0.397623 -0.103638
v 1.175123 -0.397623 0.111014
v 1.199945 -0.406156 -0.103821
v 1.201442 -0.406156 0.110831
v 1.090511 -0.925675 0.111604
v 1.148689 -0.656416 0.111199
v 1.065834 -0.911741 0.111777
v 1.174970 -0.664949 0.111015
v 1.201442 -0.406156 0.110831
v 1.175123 -0.397623 0.111014
v 1.018581 -0.885061 0.112106
v 1.072022 -0.631545 0.111733
v 0.993866 -0.871127 0.112279
v 1.098304 -0.640077 0.111550
v 1.124776 -0.381284 0.111365
v 1.098456 -0.372751 0.111549
v 0.946613 -0.844447 0.112608
v 0.995318 -0.606673 0.112268
v 0.921936 -0.830513 0.112780
v 1.021637 -0.615206 0.112085
v 1.048109 -0.356412 0.111900
v 1.021790 -0.347880 0.112084
v 1.020293 -0.347880 -0.102568
v 0.993820 -0.606673 -0.102384
v 0.995318 -0.606673 0.112268
v 1.021790 -0.347880 0.112084
v 0.921936 -0.830513 0.112780
v 0.920439 -0.830513 -0.101872
v 1.096959 -0.372751 -0.103103
v 1.070525 -0.631545 -0.102919
v 1.072022 -0.631545 0.111733
v 1.098456 -0.372751 0.111549
v 0.993866 -0.871127 0.112279
v 0.992368 -0.871127 -0.102373
v 1.173626 -0.397623 -0.103638
v 1.147192 -0.656416 -0.103453
v 1.148689 -0.656416 0.111199
v 1.175123 -0.397623 0.111014
v 1.065834 -0.911741 0.111777
v 1.064337 -0.911741 -0.102875
v 1.017084 -0.885061 -0.102546
v 1.018581 -0.885061 0.112106
v 0.992368 -0.871127 -0.102373
v 0.993866 -0.871127 0.112279
v 0.945116 -0.844447 -0.102044
v 0.946613 -0.844447 0.112608
v 0.920439 -0.830513 -0.101872
v 0.921936 -0.830513 0.112780
v 1.089014 -0.925675 -0.103048
v 1.090511 -0.925675 0.111604
v 1.064337 -0.911741 -0.102875
v 1.065834 -0.911741 0.111777
v 0.992368 -0.871127 -0.102373
v 1.070525 -0.631545 -0.102919
v 1.017084 -0.885061 -0.102546
v 1.096807 -0.640077 -0.103102
v 1.123279 -0.381284 -0.103287
v 1.096959 -0.372751 -0.103103
v 1.064337 -0.911741 -0.102875
v 1.147192 -0.656416 -0.103453
v 1.089014 -0.925675 -0.103048
v 1.173473 -0.664949 -0.103637
v 1.199945 -0.406156 -0.103821
v 1.173626 -0.397623 -0.103638
v 0.920439 -0.830513 -0.101872
v 0.993820 -0.606673 -0.102384
v 0.945116 -0.844447 -0.102044
v 1.020140 -0.615206 -0.102567
v 1.046612 -0.356412 -0.102752
v 1.020293 -0.347880 -0.102568
vn 0.9945 -0.1043 -0.0069
vn 0.9323 -0.3616 -0.0065
vn 0.9989 -0.0455 -0.0070
vn 0.9790 -0.2038 -0.0068
vn 0.9938 -0.1109 -0.0069
vn 0.9938 -0.1108 -0.0069
vn 0.3089 0.9511 -0.0022
vn 0.3085 0.9512 -0.0022
vn -0.8350 0.5503 0.0058
vn -0.8374 0.5465 0.0058
vn -0.8349 0.5504 0.0058
vn -0.8375 0.5464 0.0058
vn 0.0070 -0.0000 1.0000
vn 0.0966 0.1646 0.9816
vn 0.0468 0.0742 0.9961
vn 0.1358 0.2381 0.9617
vn 0.1061 0.1803 0.9779
vn 0.0070 -0.0004 1.0000
vn -0.9323 0.3616 0.0065
vn -0.8349 0.5503 0.0058
vn -0.8375 0.5465 0.0058
vn -0.9790 0.2038 0.0068
vn -0.9938 0.1109 0.0069
vn -0.4942 -0.8694 0.0034
vn -0.4942 -0.8693 0.0034
vn -0.0070 -0.0000 -1.0000
vn 0.0829 0.1648 -0.9828
vn 0.0329 0.0739 -0.9967
vn 0.1223 0.2378 -0.9636
vn 0.0925 0.1806 -0.9792
vn 0.9876 -0.1566 -0.0069
vn 0.9876 -0.1567 -0.0069
vn 0.9518 -0.3065 -0.0066
vn 0.9518 -0.3066 -0.0066
vn 0.9866 -0.1630 -0.0069
vn 0.9499 -0.3125 -0.0066
vn 0.3088 0.9511 -0.0022
vn 0.3087 0.9511 -0.0022
vn -0.9945 0.1043 0.0069
vn -0.9866 0.1630 0.0069
vn -0.9499 0.3125 0.0066
vn -0.9876 0.1567 0.0069
vn -0.9876 0.1566 0.0069
vn -0.9518 0.3065 0.0066
vn -0.4941 -0.8694 0.0034
vn -0.0070 -0.0004 -1.0000
vn -0.0070 0.0004 -1.0000
vt 1.969080 -41.089600
vt 2.030920 -41.107300
vt 2.030920 -41.089600
vt 1.969080 -41.107300
vt 2.025990 -41.073898
vt 1.974010 -41.073898
vt 2.025990 -40.994400
vt 1.974010 -40.994400
vt 2.025990 -40.918098
vt 1.974010 -40.918098
vt 1.923610 -41.026001
vt 2.018490 -41.026001
vt 2.018490 -40.973999
vt 1.923610 -40.973999
vt 2.068160 -40.969101
vt 2.054220 -41.026001
vt 2.068160 -41.030899
vt 2.054220 -40.973999
vt 1.923610 -41.057899
vt 2.037770 -41.089600
vt 1.931840 -41.040199
vt 2.029540 -41.107300
vt 1.945780 -41.032398
vt 2.034810 -41.073898
vt 1.971180 -40.968899
vt 2.066050 -40.994400
vt 2.076390 -40.918098
vt 1.981510 -40.892700
vt 1.969080 -41.057899
vt 2.030920 -41.057899
vt 1.969080 -41.040199
vt 2.030920 -41.040199
vt 1.974010 -41.032398
vt 2.025990 -41.032398
vt 2.025990 -40.968899
vt 1.974010 -40.968899
vt 2.025990 -40.892700
vt 1.974010 -40.892700
vt 1.923610 -41.030899
vt 2.029540 -41.030899
vt 2.029540 -40.969101
vt 1.923610 -40.969101
vt 1.970460 -41.107300
vt 2.076390 -41.057899
vt 1.962230 -41.089600
vt 2.068160 -41.040199
vt 2.054220 -41.032398
vt 1.965190 -41.073898
vt 2.028820 -40.968899
vt 1.933950 -40.994400
vt 1.923610 -40.918098
vt 2.018490 -40.892700
vt 62.027699 -36.937698
vt 61.972301 -36.937698
vt 62.027699 -37.007599
vt 61.972301 -37.007599
vt 62.027699 -37.078098
vt 61.972301 -37.078098
vt 62.027699 -36.930901
vt 61.972301 -37.000900
vt 62.027699 -37.000900
vt 61.972301 -36.930901
vt 61.972301 -37.067101
vt 62.027699 -37.067101
vt 61.972301 -36.924198
vt 62.027699 -36.994202
vt 62.027699 -36.924198
vt 61.972301 -36.994202
vt 62.027699 -37.056099
vt 61.972301 -37.056099
vt 61.987999 -37.027699
vt 61.987999 -36.972301
vt 61.979401 -37.027699
vt 61.979401 -36.972301
vt 62.013100 -37.027699
vt 62.013100 -36.972301
vt 62.004398 -37.027699
vt 62.004398 -36.972301
vt 61.962898 -37.027699
vt 61.962898 -36.972301
vt 61.954300 -37.027699
vt 61.954300 -36.972301
vt 62.009399 -37.078098
vt 62.028500 -37.005299
vt 62.001400 -37.074299
vt 62.037102 -37.007599
vt 62.045700 -36.937698
vt 62.037102 -36.935398
vt 61.985901 -37.067101
vt 62.003399 -36.998600
vt 61.977798 -37.063301
vt 62.012001 -37.000900
vt 62.020599 -36.930901
vt 62.012001 -36.928600
vt 61.962299 -37.056099
vt 61.978298 -36.991901
vt 61.954300 -37.052399
vt 61.986900 -36.994202
vt 61.995602 -36.924198
vt 61.986900 -36.921902
vt 61.972301 -36.921902
vt 61.972301 -36.991901
vt 62.027699 -36.991901
vt 62.027699 -36.921902
vt 62.027699 -37.052399
vt 61.972301 -37.052399
vt 61.972301 -36.928600
vt 61.972301 -36.998600
vt 62.027699 -36.998600
vt 62.027699 -36.928600
vt 62.027699 -37.063301
vt 61.972301 -37.063301
vt 61.972301 -36.935398
vt 61.972301 -37.005299
vt 62.027699 -37.005299
vt 62.027699 -36.935398
vt 62.027699 -37.074299
vt 61.972301 -37.074299
vt 61.985901 -37.027699
vt 61.985901 -36.972301
vt 61.977798 -37.027699
vt 61.977798 -36.972301
vt 61.962299 -37.027699
vt 61.962299 -36.972301
vt 62.009399 -37.027699
vt 62.009399 -36.972301
vt 62.001400 -37.027699
vt 62.001400 -36.972301
vt 62.022202 -37.063301
vt 61.996601 -36.998600
vt 62.014099 -37.067101
vt 61.987999 -37.000900
vt 61.979401 -36.930901
vt 61.987999 -36.928600
vt 61.998600 -37.074299
vt 61.971500 -37.005299
vt 61.990601 -37.078098
vt 61.962898 -37.007599
vt 61.954300 -36.937698
vt 61.962898 -36.935398
vt 62.045700 -37.052399
vt 62.021702 -36.991901
vt 62.037701 -37.056099
vt 62.013100 -36.994202
vt 62.004398 -36.924198
vt 62.013100 -36.921902
s 1
usemtl Meshpart1Mtl.005
f 1/1/1 2/2/2 3/3/1
f 2/2/2 1/1/1 4/4/2
f 5/5/3 1/1/1 3/3/1
f 1/1/1 5/5/3 6/6/3
f 7/7/4 6/6/3 5/5/3
f 6/6/3 7/7/4 8/8/4
f 9/9/5 8/8/4 7/7/4
f 8/8/4 9/9/5 10/10/6
f 11/11/7 12/12/7 13/13/8
f 11/11/7 13/13/8 14/14/8
f 16/15/9 17/16/10 15/17/11
f 17/16/10 16/15/9 18/18/12
f 19/19/13 20/20/14 21/21/15
f 20/20/14 19/19/13 22/22/13
f 20/20/14 23/23/16 21/21/15
f 23/23/16 20/20/14 24/24/17
f 24/24/17 25/25/13 23/23/16
f 25/25/13 24/24/17 26/26/13
f 25/25/13 26/26/13 27/27/13
f 25/25/13 27/27/13 28/28/18
f 29/29/19 30/30/19 31/31/20
f 31/31/20 30/30/19 32/32/20
f 33/33/21 34/34/12 35/35/22
f 36/36/22 33/33/21 35/35/22
f 36/36/22 35/35/22 37/37/23
f 38/38/23 36/36/22 37/37/23
f 39/39/24 40/40/25 41/41/24
f 39/39/24 41/41/24 42/42/24
f 43/43/26 44/44/26 45/45/27
f 45/45/27 44/44/26 46/46/28
f 45/45/27 46/46/28 47/47/29
f 47/47/29 48/48/30 45/45/27
f 48/48/30 47/47/29 49/49/26
f 49/49/26 50/50/26 48/48/30
f 49/49/26 51/51/26 50/50/26
f 51/51/26 49/49/26 52/52/26
usemtl Meshpart2Mtl.004
f 53/53/1 54/54/1 55/55/31
f 55/55/31 54/54/1 56/56/32
f 55/55/31 56/56/32 57/57/33
f 57/57/33 56/56/32 58/58/34
f 59/59/1 60/60/35 61/61/35
f 60/60/35 59/59/1 62/62/1
f 63/63/36 61/61/35 60/60/35
f 61/61/35 63/63/36 64/64/36
f 65/65/1 66/66/35 67/67/1
f 66/66/35 65/65/1 68/68/35
f 66/66/35 68/68/35 69/69/36
f 69/69/36 68/68/35 70/70/36
f 71/71/37 72/72/7 73/73/7
f 73/73/7 72/72/7 74/74/38
f 75/75/7 76/76/7 77/77/7
f 77/77/7 76/76/7 78/78/7
f 79/79/7 80/80/7 81/81/7
f 81/81/7 80/80/7 82/82/7
f 83/83/13 84/84/13 85/85/13
f 84/84/13 83/83/13 86/86/13
f 87/87/13 84/84/13 86/86/13
f 84/84/13 87/87/13 88/88/13
f 89/89/13 90/90/13 91/91/18
f 90/90/13 89/89/13 92/92/13
f 93/93/13 90/90/13 92/92/13
f 90/90/13 93/93/13 94/94/13
f 95/95/13 96/96/13 97/97/13
f 96/96/13 95/95/13 98/98/13
f 99/99/13 96/96/13 98/98/13
f 96/96/13 99/99/13 100/100/13
f 101/101/39 102/102/40 103/103/40
f 101/101/39 103/103/40 104/104/39
f 102/102/40 105/105/41 103/103/40
f 102/102/40 106/106/41 105/105/41
f 107/107/39 108/108/42 109/109/42
f 107/107/39 109/109/42 110/110/39
f 108/108/42 111/111/41 109/109/42
f 108/108/42 112/112/41 111/111/41
f 113/113/39 114/114/42 115/115/43
f 113/113/39 115/115/43 116/116/39
f 114/114/42 117/117/44 115/115/43
f 114/114/42 118/118/44 117/117/44
f 119/119/25 120/120/45 121/121/25
f 121/121/25 120/120/45 122/122/45
f 123/123/45 124/124/25 125/81/25
f 125/81/25 124/124/25 126/82/25
f 127/125/45 128/126/25 129/127/25
f 129/127/25 128/126/25 130/128/25
f 131/129/26 132/130/26 133/131/26
f 134/132/26 133/131/26 132/130/26
f 132/130/26 135/133/26 134/132/26
f 135/133/26 132/130/26 136/134/26
f 137/135/46 138/136/26 139/137/46
f 140/138/26 139/137/46 138/136/26
f 138/136/26 141/139/26 140/138/26
f 141/139/26 138/136/26 142/140/26
f 143/141/46 144/142/26 145/143/26
f 146/144/47 145/143/26 144/142/26
f 144/142/26 147/145/26 146/144/47
f 147/145/26 144/142/26 148/146/26
